<svg id="SvgjsSvg1001" width="288" height="288" xmlns="http://www.w3.org/2000/svg" version="1.1" xmlns:xlink="http://www.w3.org/1999/xlink" xmlns:svgjs="http://svgjs.com/svgjs"><defs id="SvgjsDefs1002"></defs><g id="SvgjsG1008" transform="matrix(0.9167,0,0,0.9167,11.995931096172342,11.99461455111745)"><svg xmlns="http://www.w3.org/2000/svg" width="288" height="288" viewBox="0 0 19 20"><path fill="#ffffff" d="M1263.1 559.005h-12.415a2.747 2.747 0 0 1-2.685-2.8v-6.3a2.746 2.746 0 0 1 2.685-2.8h1.991l3.22-7.513a.947.947 0 0 1 .866-.588 3.632 3.632 0 0 1 3.554 3.7l.025 2.3h4.747c.145 0-.142-.022 0 0 .715.113 1.864.246 1.9 1s-.01 2.142 0 3l-1.23 7.623a2.735 2.735 0 0 1-2.658 2.378zm-8.455-2h8.446a.8.8 0 0 0 .789-.684l1.2-8.105a.805.805 0 0 0-.137-.582 2.114 2.114 0 0 0-.8-.634c-.043-.007.043-.006 0 0h-4.746c-.525 0-.949-1.451-.949-2l-.025-2.3a1.705 1.705 0 0 0-1.086-1.6l-2.686 6.9zm-3.8-8a1.036 1.036 0 0 0-.949.9v6.3a.8.8 0 0 0 .786.8h2.062v-8z" opacity=".4" transform="translate(-1248 -539.005)" class="colorafb0c0 svgShape"></path></svg></g></svg>