<svg xmlns="http://www.w3.org/2000/svg" width="20" height="20" viewBox="0 0 20 20">
    <path fill="#23d2e2" d="M17 0v2a4 4 0 0 1-4 4H7a4 4 0 0 1-4-4V0H1v2a6 6 0 0 0 6 6h6a6 6 0 0 0 6-6V0zm-1.05 14A4.05 4.05 0 0 0 20 18.049v-2a2.05 2.05 0 1 1 0-4.1v-2A4.05 4.05 0 0 0 15.95 14zM0 11.95A2.141 2.141 0 0 1 2.049 14 2.141 2.141 0 0 1 0 16.05v2A4.209 4.209 0 0 0 4.049 14 4.209 4.209 0 0 0 0 9.95zM5 15a5 5 0 1 0 5-5 5 5 0 0 0-5 5zm2 0a3 3 0 1 1 3 3 3 3 0 0 1-3-3z" transform="rotate(180 10 10)"/>
</svg>
