<svg xmlns="http://www.w3.org/2000/svg" width="20" height="20" viewBox="0 0 20 20">
    <path fill="#afb0c0" d="M14.552 19.818l-4.506-2.512-.046.026-.047-.026-4.506 2.512a1.428 1.428 0 0 1-1.526-.084 1.456 1.456 0 0 1-.591-1.42l.882-5.453L.409 8.93a1.457 1.457 0 0 1 .814-2.45l5.189-.8L8.668.834A1.44 1.44 0 0 1 9.971 0 .165.165 0 0 1 10 0a.155.155 0 0 1 .029 0 1.442 1.442 0 0 1 1.3.834l2.255 4.847 5.189.8a1.456 1.456 0 0 1 .814 2.45l-3.8 3.931.882 5.453a1.456 1.456 0 0 1-.591 1.42 1.429 1.429 0 0 1-1.527.084zm-3.532-4.259l3.494 1.948-.7-4.326-.16-.989.7-.721L17.422 8.3l-4.137-.636-1.058-.164-.453-.97L10 2.713 8.225 6.526l-.451.97-1.057.163-4.139.641 3.071 3.175.7.721-.16.989-.7 4.326 3.491-1.952.965-.538.056.031.055-.031zM11 11V9h2v2zm-4 0V9h2v2z"/>
</svg>
