<svg xmlns="http://www.w3.org/2000/svg" width="20.001" height="19.999" viewBox="0 0 20.001 19.999">
    <path fill="#23d2e2" d="M7.43 2.637a.367.367 0 0 1-.229.369c-.3.128-.343.053-.443-.045a2.673 2.673 0 0 0-3.772-.042 2.638 2.638 0 0 0 0 3.729.374.374 0 0 1 .113.428.35.35 0 0 1-.322.221h-.141a2.637 2.637 0 0 0 0 5.274.366.366 0 0 1 .372.229.383.383 0 0 1-.046.444 2.653 2.653 0 0 0-.044 3.77 2.7 2.7 0 0 0 3.73 0 .352.352 0 0 1 .43-.112.953.953 0 0 0 .158.054.352.352 0 0 1 .129.271v.135a2.637 2.637 0 0 0 5.273 0 .382.382 0 0 1 .212-.391.341.341 0 0 1 .4.067 2.674 2.674 0 0 0 3.768.042 2.637 2.637 0 0 0 0-3.731.374.374 0 0 1-.112-.428 1.1 1.1 0 0 0 .055-.158.347.347 0 0 1 .269-.129h.135a2.637 2.637 0 1 0 0-5.273.38.38 0 0 1-.388-.21.352.352 0 0 1 .065-.4 2.659 2.659 0 0 0 .814-1.9 2.625 2.625 0 0 0-.772-1.867 2.7 2.7 0 0 0-3.73 0 .362.362 0 0 1-.649-.21v-.137a2.637 2.637 0 1 0-5.273 0zm.521 2.222a2.312 2.312 0 0 0 1.478-2.126.665.665 0 0 1 .638-.733.638.638 0 0 1 .636.637v.138a2.344 2.344 0 0 0 1.425 2.155 2.4 2.4 0 0 0 2.582-.474.627.627 0 0 1 .956-.058.644.644 0 0 1 .188.454.625.625 0 0 1-.187.449 2.366 2.366 0 0 0-.525 2.652 2.339 2.339 0 0 0 2.146 1.411A.658.658 0 0 1 18 10a.636.636 0 0 1-.636.635h-.139a2.35 2.35 0 0 0-2.155 1.425.989.989 0 0 0-.07.24 2.337 2.337 0 0 0 .545 2.406.7.7 0 0 1 .242.507.628.628 0 0 1-.187.449.65.65 0 0 1-.9 0 2.361 2.361 0 0 0-4.064 1.621A.658.658 0 0 1 10 18a.638.638 0 0 1-.636-.636v-.139A2.35 2.35 0 0 0 7.94 15.07.973.973 0 0 0 7.7 15a2.378 2.378 0 0 0-2.4.544.627.627 0 0 1-.958.058.639.639 0 0 1 0-.9 2.367 2.367 0 0 0 .527-2.649 2.313 2.313 0 0 0-2.136-1.483A.664.664 0 0 1 2 9.934a.637.637 0 0 1 .636-.634h.139a2.361 2.361 0 0 0 1.681-4 .661.661 0 0 1-.056-.967.654.654 0 0 1 .9 0A2.379 2.379 0 0 0 7 5.06a2.333 2.333 0 0 0 .951-.201zM7 10a3 3 0 1 0 3-3 3 3 0 0 0-3 3zm2 0a1 1 0 1 1 1 1 1 1 0 0 1-1-1z" transform="rotate(180 10 10)"/>
</svg>
