<svg xmlns="http://www.w3.org/2000/svg" width="24" height="24" viewBox="0 0 24 24">
    <path fill="none" d="M0 0h24v24H0z"/>
    <path fill="#fff" d="M2.213 14.06a9.945 9.945 0 0 1 0-4.12 2.179 2.179 0 0 0 2.4-1 2.178 2.178 0 0 0-.986-2.4 9.945 9.945 0 0 1 2.909-2.917 2.179 2.179 0 0 0 2.4.986 2.177 2.177 0 0 0 1-2.4 9.945 9.945 0 0 1 4.12 0 2.179 2.179 0 0 0 1 2.4 2.178 2.178 0 0 0 2.4-.986 9.945 9.945 0 0 1 2.913 2.913 2.179 2.179 0 0 0-.986 2.4 2.177 2.177 0 0 0 2.4 1 9.945 9.945 0 0 1 0 4.12 2.179 2.179 0 0 0-2.4 1 2.178 2.178 0 0 0 .986 2.4 9.945 9.945 0 0 1-2.913 2.913 2.179 2.179 0 0 0-2.4-.986 2.177 2.177 0 0 0-1 2.4 9.945 9.945 0 0 1-4.12 0 2.179 2.179 0 0 0-1-2.4 2.178 2.178 0 0 0-2.4.986 9.945 9.945 0 0 1-2.913-2.913 2.179 2.179 0 0 0 .986-2.4 2.177 2.177 0 0 0-2.4-1zM4 12.21a3.529 3.529 0 0 1 2.195 5.3q.144.153.3.3a3.529 3.529 0 0 1 5.3 2.2q.21.006.42 0a3.529 3.529 0 0 1 5.3-2.2q.153-.144.3-.3a3.529 3.529 0 0 1 2.2-5.3q.006-.21 0-.42a3.529 3.529 0 0 1-2.2-5.3q-.145-.152-.3-.3A3.529 3.529 0 0 1 12.21 4q-.21-.006-.42 0a3.529 3.529 0 0 1-5.3 2.195q-.153.144-.3.3A3.529 3.529 0 0 1 4 11.79q-.006.21 0 .42zM12 15a3 3 0 1 1 3-3 3 3 0 0 1-3 3zm0-2a1 1 0 1 0-1-1 1 1 0 0 0 1 1z"/>
</svg>
